<svg width="16" height="17" viewBox="0 0 16 17" fill="none" xmlns="http://www.w3.org/2000/svg">
<path d="M6.03458 10.7958C4.07014 10.5863 2.60065 8.89577 2.66669 6.9213C2.67792 6.1929 2.94235 5.49113 3.4146 4.93645L3.46269 3.14923C3.46845 2.93522 3.57663 2.737 3.7535 2.61638C3.93036 2.49576 4.1544 2.46742 4.35573 2.54019L6.27402 3.23356C7.40738 2.95097 8.59282 2.95129 9.72602 3.23448L11.6443 2.54114C11.8457 2.46837 12.0697 2.49672 12.2466 2.61733C12.4234 2.73795 12.5316 2.93617 12.5374 3.15018L12.5854 4.93648C13.0573 5.49137 13.3217 6.19299 13.3334 6.9213C13.3994 8.89577 11.9299 10.5863 9.96547 10.7958" stroke="#2F3033" stroke-width="1.5" stroke-linecap="round" stroke-linejoin="round"/>
<path d="M5.36792 14.4999V13.0771C5.38586 12.2712 5.6158 11.4843 6.03459 10.7957" stroke="#2F3033" stroke-width="1.5" stroke-linecap="round" stroke-linejoin="round"/>
<path d="M9.96533 10.7957C10.4058 11.52 10.6477 12.3477 10.6666 13.1953V14.4999" stroke="#2F3033" stroke-width="1.5" stroke-linecap="round" stroke-linejoin="round"/>
<path d="M2 11.5437C2 12.6483 2.89543 13.5437 4 13.5437H5.36789" stroke="#2F3033" stroke-width="1.5" stroke-linecap="round" stroke-linejoin="round"/>
</svg>
